<svg width="94" height="25" viewBox="0 0 94 25" fill="none" xmlns="http://www.w3.org/2000/svg">
<path d="M3.37493 11.1878H3.96646L4.64054 11.4011L5.22519 12.7354V12.9693C5.22519 13.0564 5.05553 13.2032 4.7162 13.4095H3.89768L3.74636 13.2651L2.41885 13.4095C1.13031 13.4095 0.486041 13.1138 0.486041 12.5222V12.4466C0.719904 11.9834 1.18763 11.6578 1.88922 11.4698C2.56788 11.2818 3.06311 11.1878 3.37493 11.1878ZM2.10244 12.1164V12.4947L2.33631 12.7354H3.08604L3.22361 12.6185H3.34054C3.34054 12.2838 3.08833 12.0728 2.58393 11.9857L2.10244 12.1164ZM9.93845 10.8164H11.2041C11.8185 10.8164 12.1257 10.8989 12.1257 11.064V11.2429C12.1257 11.4905 11.7589 11.9628 11.0252 12.6598L10.9564 12.9831C12.3963 13.3774 13.1162 13.9093 13.1162 14.5788C13.1162 15.3171 12.8938 15.8169 12.449 16.0783L11.3554 16.491L11.2728 16.4085V16.0783C11.5021 15.7802 11.6168 15.528 11.6168 15.3217C11.6168 14.3771 11.0069 13.9048 9.78712 13.9048H9.36067C8.88836 13.9048 8.05379 14.1295 6.85697 14.5788L6.69189 14.3312V14.2487C6.69189 13.9139 7.52645 13.5242 9.19559 13.0794C9.9201 12.6667 10.2824 12.2746 10.2824 11.9032L10.1173 11.7381H8.02628L6.77443 11.9032L6.60935 11.6556V11.5661C7.50811 11.0663 8.61781 10.8164 9.93845 10.8164ZM15.9774 11.518L18.6393 11.0778H19.1689L19.4028 11.291C19.4028 11.5432 18.919 12.1966 17.9515 13.2513V13.5471C17.9515 13.6571 18.128 13.7282 18.4811 13.7603C19.1368 13.7603 20.6111 13.5907 22.9039 13.2513C23.2111 13.3018 23.3647 13.3774 23.3647 13.4783V13.5471C23.3647 14.0286 22.7296 14.7072 21.4594 15.5831H21.0742L20.9298 15.4386V15.2185L21.6864 14.1249L21.6176 14.0561C20.1181 14.3496 18.974 14.4963 18.1853 14.4963H17.8827C17.071 14.4963 16.6652 14.228 16.6652 13.6915V13.4783C16.6652 13.2169 16.9679 12.8042 17.5732 12.2402V11.9513H17.5044C15.9361 12.1439 14.7141 12.3847 13.8382 12.6735H13.7695L13.3912 12.6048V12.3778C13.3912 12.231 13.891 11.9949 14.8906 11.6693L15.9774 11.4423V11.518ZM27.5763 11.1053H27.7276C28.3008 11.1053 28.5874 11.275 28.5874 11.6143C28.5874 12.3388 29.1194 13.0381 30.1832 13.7122V13.8429C29.986 14.1455 29.6948 14.2968 29.3097 14.2968H29.2477C28.1885 14.2968 27.5121 13.4966 27.2186 11.8963H26.9366C26.579 11.8963 26.3864 11.9697 26.3589 12.1164V12.8386C26.3589 12.9578 26.0425 13.1 25.4097 13.2651H25.1276C24.9671 13.2651 24.8686 12.9533 24.8319 12.3296C24.8319 12.1187 25.5793 11.7335 27.0742 11.1741L27.5763 11.1053ZM35.141 10.1354H35.4643V10.2661C33.3779 12.2884 32.3347 13.3797 32.3347 13.5402H32.3897L34.8728 13.7947C37.8488 14.5467 40.3777 15.9614 42.4595 18.0386C43.7022 19.0291 44.6606 20.0104 45.3347 20.9825C46.2472 22.3123 46.7034 23.312 46.7034 23.9815V24.181C46.7034 24.4102 46.6392 24.5409 46.5108 24.573H46.3802C46.3802 22.9956 44.7041 20.9275 41.3521 18.3688C37.592 15.5808 34.1482 14.1868 31.0209 14.1868H30.4981V14.118C32.878 11.463 34.4257 10.1354 35.141 10.1354ZM40.9601 10.6513V10.782C40.717 11.1443 40.0819 11.4515 39.0548 11.7037C38.3944 11.9192 37.5049 12.027 36.386 12.027C35.5973 12.027 35.2029 11.9399 35.2029 11.7656C35.4459 11.4171 35.8839 11.2429 36.5167 11.2429H36.9019L38.1468 11.3735H38.2019C38.8576 11.3735 39.777 11.1328 40.9601 10.6513ZM34.2193 12.3571C35.5904 12.6644 36.7253 12.818 37.6241 12.818C38.2385 12.818 39.0662 12.6644 40.1071 12.3571L40.169 12.4259V12.4878C39.8389 12.8547 38.5962 13.1367 36.441 13.3339H36.1246C34.6435 13.1871 33.9029 12.9899 33.9029 12.7423V12.6185C33.9167 12.5314 34.0221 12.4443 34.2193 12.3571ZM42.905 0.622751H42.9876C43.4874 0.622751 44.1729 1.25326 45.0442 2.51429C45.9613 4.11922 46.4198 5.98095 46.4198 8.09947C46.4198 8.91111 46.014 9.93139 45.2024 11.1603V11.236L47.8574 10.7958H48.3939L48.6278 11.009C48.6278 11.2612 48.144 11.9146 47.1764 12.9693V13.2651C47.1764 13.3751 47.353 13.4462 47.7061 13.4783C48.3618 13.4783 49.8361 13.3086 52.1288 12.9693C52.4361 13.0152 52.5897 13.0908 52.5897 13.1963V13.2651C52.5897 13.7466 51.9546 14.4252 50.6844 15.3011H50.2923L50.1548 15.1566V14.9296L50.9114 13.8429L50.8357 13.7741C49.3408 14.0675 48.199 14.2143 47.4103 14.2143H47.1008C46.2891 14.2143 45.8833 13.946 45.8833 13.4095V13.1963C45.8833 12.9349 46.1883 12.5199 46.7981 11.9513V11.6693H46.7225C45.1588 11.8573 43.9391 12.0981 43.0632 12.3915H42.9876L42.6092 12.3228V12.0958C42.6092 11.9307 43.1939 11.667 44.3632 11.3048L44.9616 9.41323L45.1198 8.03069V7.45291C45.1198 5.83421 44.4343 4.04127 43.0632 2.07407L42.5267 1.92963C42.1278 1.92963 41.9283 2.36296 41.9283 3.22963L42.0796 5.92593C42.0796 9.17249 41.7724 11.0365 41.1579 11.518H40.7108C40.4449 11.518 40.2913 11.4469 40.25 11.3048C40.6627 10.0529 40.869 8.59929 40.869 6.94392L40.5595 3.45661V3.16085C40.5595 1.46878 41.3413 0.622751 42.905 0.622751ZM59.4946 10.9608H59.6184C59.9806 10.9608 60.1617 11.1213 60.1617 11.4423C60.1021 13.4004 59.8797 14.3794 59.4946 14.3794L59.0062 14.4963L58.2771 14.4344H56.8051L56.1448 14.4963L55.3538 14.3794L54.3771 14.5513H54.0676L54.0057 14.4963H53.9506C53.9506 14.0607 54.682 13.7374 56.1448 13.5265C56.9198 13.3614 57.3073 13.0977 57.3073 12.7354L56.9977 12.4259V12.364C56.9977 11.9467 57.83 11.479 59.4946 10.9608ZM58.0364 12.1439L58.3115 12.4122H59.0887V12.0132L58.8274 11.7519C58.3 11.8069 58.0364 11.9376 58.0364 12.1439ZM57.1766 13.6434V13.7603H57.5411L57.9057 13.7053L58.0983 13.7603L58.2771 13.7053L58.3321 13.7603H58.394C58.6829 13.7603 58.8274 13.5998 58.8274 13.2788L58.7586 13.0862H58.3321C58.0983 13.0862 57.7131 13.272 57.1766 13.6434ZM56.5025 2.25979H56.6194C57.6099 2.25979 58.5431 3.44286 59.4189 5.80899C62.0693 6.77654 63.445 7.95044 63.5459 9.33069C63.7797 10.2937 63.7316 10.9242 63.4014 11.2222H63.085C62.975 11.2222 62.8535 10.5917 62.7205 9.33069C62.294 8.32187 61.4411 7.59965 60.1617 7.16402H59.976L59.8591 7.29471V7.35661C60.0242 8.79189 60.1067 9.82822 60.1067 10.4656V11.0228L59.9141 11.2085C59.3409 11.2085 59.0543 11.1259 59.0543 10.9608C59.0543 9.33757 58.7425 7.82434 58.1189 6.42116C54.7669 5.78377 53.0908 5.30688 53.0908 4.99048C52.7974 4.81164 52.6506 4.60758 52.6506 4.37831V4.30952C52.6506 3.48871 53.9346 2.80547 56.5025 2.25979ZM53.8268 3.88307V3.93809C53.8268 4.603 55.175 5.11887 57.8713 5.48571V5.43069C57.8713 4.70617 57.3714 3.96102 56.3718 3.19524L56.0623 3.14021H55.9453C55.0374 3.14021 54.3312 3.38783 53.8268 3.88307ZM73.3529 11.9857L73.5317 12.1989L73.5455 12.4947C73.1603 13.4577 72.6559 14.0974 72.0322 14.4138L71.5232 14.4206L71.4407 14.3519H71.3719L71.9703 12.873H71.8809L69.6317 12.9005L69.2672 12.9349L69.3359 12.3571L73.3529 11.9857ZM67.4719 13.1344L66.5502 13.1688C64.4363 13.2559 62.9437 12.9326 62.0725 12.1989V12.0476C62.0633 11.8963 62.4164 11.7037 63.1317 11.4698H63.2968C64.3515 12.1531 66.3691 12.4511 69.3497 12.364L69.3153 12.9693L67.4719 13.1344ZM78.3408 11.1878H78.9323L79.6064 11.4011L80.191 12.7354V12.9693C80.191 13.0564 80.0214 13.2032 79.682 13.4095H78.8635L78.7122 13.2651L77.3847 13.4095C76.0961 13.4095 75.4519 13.1138 75.4519 12.5222V12.4466C75.6857 11.9834 76.1534 11.6578 76.855 11.4698C77.5337 11.2818 78.0289 11.1878 78.3408 11.1878ZM77.0683 12.1164V12.4947L77.3021 12.7354H78.0519L78.1894 12.6185H78.3064C78.3064 12.2838 78.0542 12.0728 77.5497 11.9857L77.0683 12.1164ZM85.5371 11.1397C85.693 11.3139 85.7824 11.5455 85.8053 11.8344L86.4313 12.8042V13.0794C86.257 13.3041 85.9589 13.4164 85.5371 13.4164C85.2895 13.4164 84.8951 13.1413 84.354 12.591L83.3842 13.0037H83.2535C82.1896 12.9349 81.6577 12.6116 81.6577 12.0339V11.9651C81.6577 11.5891 81.9581 11.3369 82.5588 11.2085H82.8408C82.9417 11.2085 83.0792 11.5088 83.2535 12.1095L83.6662 12.2471C84.0147 12.2471 84.2669 11.9674 84.4228 11.4079C84.7759 11.2291 85.1473 11.1397 85.5371 11.1397ZM73.8425 3.95185C77.1028 6.55185 79.4231 8.01005 80.8033 8.32645C80.8033 8.44568 81.1129 8.55115 81.7319 8.64286H81.8901C82.5046 8.64286 83.158 8.01693 83.8504 6.76508C84.9922 5.41235 86.1363 4.73598 87.2827 4.73598C88.5621 4.73598 89.3714 5.23122 89.7108 6.22169C90.018 7.01958 90.1716 7.69824 90.1716 8.25767C90.1716 10.0735 89.7016 11.2979 88.7615 11.9307V11.9995C89.1238 13.2513 90.3252 13.8772 92.3658 13.8772H93.7758L93.9272 14.0354V14.118C93.9272 14.3381 93.0926 14.4665 91.4235 14.5032H91.1139C89.8162 14.5032 88.6423 14.1134 87.5922 13.3339L87.2827 12.4741C87.2827 12.0339 87.6725 11.6166 88.452 11.2222C88.7684 10.6399 88.9266 10.0414 88.9266 9.42698V8.25767C88.9266 7.01958 88.3236 6.10476 87.1176 5.51323L86.8975 5.44444C86.1914 5.44444 85.3293 6.35467 84.3113 8.17513C83.5547 8.95467 82.876 9.34444 82.2753 9.34444H81.8901C80.1018 9.34444 78.357 8.6933 76.6557 7.39101C75.1012 6.48765 73.8746 5.57743 72.9758 4.66032V4.34391C72.9758 4.16049 73.2647 4.02981 73.8425 3.95185Z" fill="black"/>
</svg>
